<svg id="visual" viewBox="0 0 900 600" width="900" height="600" xmlns="http://www.w3.org/2000/svg" xmlns:xlink="http://www.w3.org/1999/xlink" version="1.1"><rect x="0" y="0" width="900" height="600" fill="#01070c"></rect><defs><linearGradient id="grad1_0" x1="33.3%" y1="0%" x2="100%" y2="100%"><stop offset="20%" stop-color="#01070c" stop-opacity="1"></stop><stop offset="80%" stop-color="#01070c" stop-opacity="1"></stop></linearGradient></defs><defs><linearGradient id="grad2_0" x1="0%" y1="0%" x2="66.7%" y2="100%"><stop offset="20%" stop-color="#01070c" stop-opacity="1"></stop><stop offset="80%" stop-color="#01070c" stop-opacity="1"></stop></linearGradient></defs><g transform="translate(900, 0)"><path d="M0 486.7C-35.2 423.3 -70.3 359.9 -106.9 329.1C-143.5 298.2 -181.5 300.1 -205.7 283.2C-230 266.3 -240.4 230.7 -288.8 209.8C-337.2 189 -423.6 182.9 -462.9 150.4C-502.2 117.9 -494.5 58.9 -486.7 0L0 0Z" fill="#F7770F"></path></g><g transform="translate(0, 600)"><path d="M0 -486.7C41.7 -460.6 83.3 -434.4 137.8 -424.2C192.3 -414 259.6 -419.8 274.5 -377.8C289.4 -335.9 251.9 -246.2 284 -206.3C316 -166.5 417.5 -176.5 462.9 -150.4C508.3 -124.3 497.5 -62.2 486.7 0L0 0Z" fill="#F7770F"></path></g></svg>